<svg id="Layer_1" data-name="Layer 1" xmlns="http://www.w3.org/2000/svg" viewBox="0 0 122.88 108.78"><defs><style>.cls-1{fill-rule:evenodd;}</style></defs><title>car-repair-mechanic</title><path class="cls-1" d="M13.26,32.17C2.94,26.92,4.13,21.08,14.49,21.69L16.81,26,21.6,11.16C23.48,5.31,26.61,0,32.74,0H93.92c6.13,0,9.67,5.21,11.15,11.16l3.59,14.42,2.07-3.89c10.66-.62,11.61,5.57.33,10.92l1.83,2.81c6.63,6.81,6.78,13.61,5.91,28.41a27.21,27.21,0,0,0-3.49-1.77c-14.43-6-22.66.15-30.47,6-2.54,1.9-5,3.72-6.29,3.71L44.34,72c-.52,0-1,0-1.27-.08l-.17-.06h0l-.15,0a6.07,6.07,0,0,1-1.34-.72c-.94-.61-2.35-1.69-4.27-3.2-6.26-4.93-13.56-7.46-20.81-7.06a26.53,26.53,0,0,0-12,3.59C3.21,51,2.48,39.15,13.26,32.17Zm19,17.13L19,47.63c-3.12-.34-4,1-2.89,3.66l1.42,3.47a5,5,0,0,0,1.79,2,6.05,6.05,0,0,0,3,.82l11.78.09c2.85,0,4.08-1.15,3.19-3.76a6.37,6.37,0,0,0-5-4.6Zm58.38,0,13.21-1.67c3.12-.34,4,1,2.9,3.66l-1.43,3.47a5,5,0,0,1-1.79,2,6,6,0,0,1-3,.82l-11.78.09c-2.85,0-4.08-1.15-3.19-3.76a6.39,6.39,0,0,1,5-4.6Zm-68.86-20h81.59l-3.6-15c-1-4.56-3.82-8.51-8.5-8.51H34.77c-4.67,0-7.07,4.06-8.5,8.51l-4.5,15v0Z"/><path class="cls-1" d="M11.28,107.32c-5.06-2.1-9.12-6.7-11.28-12.43,20.09,9.85,28.19-16.43,4.09-18,7.63-8.65,18.48-8.24,27.07-1.48,4.05,3.19,6.34,4.81,8.71,5.55a14.79,14.79,0,0,0,4.26.6l34.34-.24C89.68,81.48,95.86,64.44,111.6,71c5.06,2.1,9.11,6.71,11.28,12.43-20.09-9.85-28.2,16.44-4.09,18-7.63,8.65-18.48,8.25-27.07,1.48-3.76-3-6.08-6.41-13.67-6.43l-33.28.43a15.42,15.42,0,0,0-4.84.7,17.74,17.74,0,0,0-4.1,2.25c-8.09,5.52-14,11.92-24.55,7.52Z"/></svg>