<svg id="Layer_1" data-name="Layer 1" xmlns="http://www.w3.org/2000/svg" viewBox="0 0 70.05 122.88"><defs><style>.cls-1{fill-rule:evenodd;}</style></defs><title>mobile-repairing</title><path class="cls-1" d="M12.88,0H57.17A12.91,12.91,0,0,1,70.05,12.88V110a12.91,12.91,0,0,1-12.88,12.88H12.88A12.91,12.91,0,0,1,0,110V12.88A12.91,12.91,0,0,1,12.88,0ZM16,16.19l-.12.36-4.19,0c-3.57,0-2.51,5.33-2.51,7.76A2.66,2.66,0,0,0,9.89,26a2.36,2.36,0,0,0,1.78.77l3.84,0a16.4,16.4,0,0,0,.78,2.55c.31.82.7,1.64,1.08,2.43l-3,3a2.35,2.35,0,0,0-.76,1.74,2.51,2.51,0,0,0,.75,1.78l3.7,3.74a2.39,2.39,0,0,0,1.79.73,2.72,2.72,0,0,0,1.82-.69l2.77-2.76a15.3,15.3,0,0,0,2.33,1.28c.83.37,1.61.69,2.46,1l0,4.19a2.53,2.53,0,0,0,.7,1.78,2.4,2.4,0,0,0,1.78.73H37a2.65,2.65,0,0,0,1.78-.7,2.39,2.39,0,0,0,.76-1.78l0-3.84a16.4,16.4,0,0,0,2.55-.78,23,23,0,0,0,2.43-1.08l3,3a2.44,2.44,0,0,0,1.78.77,2.53,2.53,0,0,0,1.79-.74l3.74-3.71a2.46,2.46,0,0,0,.73-1.79,2.72,2.72,0,0,0-.71-1.82L52,33.1a14.45,14.45,0,0,0,1.27-2.33,25.79,25.79,0,0,0,1-2.46l4.19,0a2.49,2.49,0,0,0,1.78-.71A2.33,2.33,0,0,0,61,25.84V20.58a2.62,2.62,0,0,0-.7-1.78A2.44,2.44,0,0,0,58.52,18H54.68c-.14-.61-.32-1.22-.52-1.83h11.7V97.08c-2.53-3.29-5-6.82-7.39-10.17-3.62-5.27-2.35-8.52-2.09-12.56.58-9.2-4.33-16.91-14-18.07C52.88,73.73,30.78,80.7,28,62.05a18.05,18.05,0,0,0-3.22,13.78c3,14,17.78,10.17,23.07,18,2.64,3.89,5.43,7.3,7.87,11H4.3V16.19Zm33.87,0A16,16,0,1,1,19.33,19.6a15.29,15.29,0,0,1,1-3.41ZM35,108.87a5.27,5.27,0,1,1-5.27,5.27A5.29,5.29,0,0,1,35,108.87Z"/></svg>